<mxfile host="Electron" agent="Mozilla/5.0 (Windows NT 10.0; Win64; x64) AppleWebKit/537.36 (KHTML, like Gecko) draw.io/26.0.4 Chrome/128.0.6613.186 Electron/32.2.5 Safari/537.36" version="26.0.4">
  <diagram name="EventStorming" id="5_YWK2AsJThhMhMhg2Db">
    <mxGraphModel dx="7941" dy="4202" grid="1" gridSize="10" guides="1" tooltips="1" connect="1" arrows="1" fold="1" page="1" pageScale="1" pageWidth="827" pageHeight="1169" math="0" shadow="0">
      <root>
        <mxCell id="0" />
        <mxCell id="1" parent="0" />
        <mxCell id="6dgYTNMcN5cRUHunFICJ-126" value="팜스토리는 그 자체로 하나의 서비스이므로 마이크로서비스 아키텍처를 적용할 필요가 없다.&lt;div&gt;3-Layered 모놀리스 아키텍처와 MVC 디자인 패턴을 적용할 것.&lt;/div&gt;&lt;div&gt;&lt;br&gt;&lt;/div&gt;&lt;div&gt;데이터베이스는 user, product, article, comment, order 테이블을 가질 것으로 예상됨.&lt;br&gt;&lt;div&gt;&lt;br&gt;&lt;/div&gt;&lt;/div&gt;" style="whiteSpace=wrap;html=1;aspect=fixed;align=left;verticalAlign=top;fillColor=#FFE599;fontColor=#000000;" vertex="1" parent="1">
          <mxGeometry x="-1310" y="-850" width="390" height="390" as="geometry" />
        </mxCell>
        <mxCell id="6dgYTNMcN5cRUHunFICJ-130" value="" style="group" vertex="1" connectable="0" parent="1">
          <mxGeometry y="300" width="770" height="390" as="geometry" />
        </mxCell>
        <mxCell id="NV7RWuxPwkH0owP8KRcs-56" value="&lt;font style=&quot;color: rgb(0, 0, 0);&quot;&gt;Customer&lt;/font&gt;" style="whiteSpace=wrap;html=1;aspect=fixed;fillColor=#FFFF99;fontColor=#000000;" parent="6dgYTNMcN5cRUHunFICJ-130" vertex="1">
          <mxGeometry x="15.5" y="165" width="80" height="80" as="geometry" />
        </mxCell>
        <mxCell id="NV7RWuxPwkH0owP8KRcs-53" value="" style="rounded=0;whiteSpace=wrap;html=1;fillColor=#FFFF66;glass=0;" parent="6dgYTNMcN5cRUHunFICJ-130" vertex="1">
          <mxGeometry x="226.5" y="95" width="50" height="220" as="geometry" />
        </mxCell>
        <mxCell id="NV7RWuxPwkH0owP8KRcs-10" value="Wish-list was listed" style="whiteSpace=wrap;html=1;aspect=fixed;fillColor=#FF8000;" parent="6dgYTNMcN5cRUHunFICJ-130" vertex="1">
          <mxGeometry x="211.5" y="165" width="80" height="80" as="geometry" />
        </mxCell>
        <mxCell id="NV7RWuxPwkH0owP8KRcs-38" value="Wished product deleted" style="whiteSpace=wrap;html=1;aspect=fixed;fillColor=#FF8000;" parent="6dgYTNMcN5cRUHunFICJ-130" vertex="1">
          <mxGeometry x="580" y="165" width="80" height="80" as="geometry" />
        </mxCell>
        <mxCell id="6dgYTNMcN5cRUHunFICJ-40" value="Wish-list Context" style="text;strokeColor=none;fillColor=none;html=1;fontSize=24;fontStyle=1;verticalAlign=middle;align=center;" vertex="1" parent="6dgYTNMcN5cRUHunFICJ-130">
          <mxGeometry x="70" y="20" width="100" height="40" as="geometry" />
        </mxCell>
        <mxCell id="6dgYTNMcN5cRUHunFICJ-48" value="&lt;font color=&quot;#000000&quot;&gt;Delete&lt;/font&gt;&lt;div&gt;&lt;font color=&quot;#000000&quot;&gt;wished product&lt;/font&gt;&lt;/div&gt;" style="whiteSpace=wrap;html=1;aspect=fixed;fillColor=#66B2FF;fontColor=#000000;" vertex="1" parent="6dgYTNMcN5cRUHunFICJ-130">
          <mxGeometry x="490" y="165" width="80" height="80" as="geometry" />
        </mxCell>
        <mxCell id="6dgYTNMcN5cRUHunFICJ-49" value="&lt;font color=&quot;#000000&quot;&gt;Wish-list&lt;/font&gt;" style="whiteSpace=wrap;html=1;aspect=fixed;fillColor=#66FFB3;fontColor=#000000;" vertex="1" parent="6dgYTNMcN5cRUHunFICJ-130">
          <mxGeometry x="307.5" y="165" width="80" height="80" as="geometry" />
        </mxCell>
        <mxCell id="6dgYTNMcN5cRUHunFICJ-51" value="&lt;div&gt;&lt;font color=&quot;#000000&quot;&gt;calculated&lt;/font&gt;&lt;/div&gt;&lt;font color=&quot;#000000&quot;&gt;total price&lt;/font&gt;" style="whiteSpace=wrap;html=1;aspect=fixed;fillColor=#66FFB3;fontColor=#000000;" vertex="1" parent="6dgYTNMcN5cRUHunFICJ-130">
          <mxGeometry x="400" y="165" width="80" height="80" as="geometry" />
        </mxCell>
        <mxCell id="6dgYTNMcN5cRUHunFICJ-52" value="&lt;font color=&quot;#000000&quot;&gt;Create Order&lt;/font&gt;" style="whiteSpace=wrap;html=1;aspect=fixed;fillColor=#66B2FF;fontColor=#000000;" vertex="1" parent="6dgYTNMcN5cRUHunFICJ-130">
          <mxGeometry x="670" y="165" width="80" height="80" as="geometry" />
        </mxCell>
        <mxCell id="6dgYTNMcN5cRUHunFICJ-67" value="&lt;font color=&quot;#000000&quot;&gt;List wish-list&lt;/font&gt;" style="whiteSpace=wrap;html=1;aspect=fixed;fillColor=#66B2FF;fontColor=#000000;" vertex="1" parent="6dgYTNMcN5cRUHunFICJ-130">
          <mxGeometry x="115.5" y="165" width="80" height="80" as="geometry" />
        </mxCell>
        <mxCell id="6dgYTNMcN5cRUHunFICJ-125" value="" style="rounded=0;whiteSpace=wrap;html=1;fillColor=none;" vertex="1" parent="6dgYTNMcN5cRUHunFICJ-130">
          <mxGeometry width="770" height="390" as="geometry" />
        </mxCell>
        <mxCell id="6dgYTNMcN5cRUHunFICJ-134" value="" style="group" vertex="1" connectable="0" parent="1">
          <mxGeometry x="910" y="-10" width="1231" height="590" as="geometry" />
        </mxCell>
        <mxCell id="NV7RWuxPwkH0owP8KRcs-62" value="&lt;font style=&quot;color: rgb(0, 0, 0);&quot;&gt;Customer&lt;/font&gt;" style="whiteSpace=wrap;html=1;aspect=fixed;fillColor=#FFFF99;fontColor=#000000;" parent="6dgYTNMcN5cRUHunFICJ-134" vertex="1">
          <mxGeometry x="11" y="220" width="80" height="80" as="geometry" />
        </mxCell>
        <mxCell id="NV7RWuxPwkH0owP8KRcs-52" value="" style="rounded=0;whiteSpace=wrap;html=1;fillColor=#FFFF66;glass=0;" parent="6dgYTNMcN5cRUHunFICJ-134" vertex="1">
          <mxGeometry x="1116" y="65" width="50" height="220" as="geometry" />
        </mxCell>
        <mxCell id="NV7RWuxPwkH0owP8KRcs-11" value="Order placed" style="whiteSpace=wrap;html=1;aspect=fixed;fillColor=#FF8000;" parent="6dgYTNMcN5cRUHunFICJ-134" vertex="1">
          <mxGeometry x="1101" y="135" width="80" height="80" as="geometry" />
        </mxCell>
        <mxCell id="6dgYTNMcN5cRUHunFICJ-7" value="&lt;font color=&quot;#000000&quot;&gt;Pay&lt;/font&gt;" style="whiteSpace=wrap;html=1;aspect=fixed;fillColor=#66B2FF;fontColor=#000000;" vertex="1" parent="6dgYTNMcN5cRUHunFICJ-134">
          <mxGeometry x="511" y="220" width="80" height="80" as="geometry" />
        </mxCell>
        <mxCell id="6dgYTNMcN5cRUHunFICJ-14" value="&lt;font color=&quot;#000000&quot;&gt;Products to order&lt;/font&gt;" style="whiteSpace=wrap;html=1;aspect=fixed;fillColor=#66FFB3;fontColor=#000000;" vertex="1" parent="6dgYTNMcN5cRUHunFICJ-134">
          <mxGeometry x="311" y="220" width="80" height="80" as="geometry" />
        </mxCell>
        <mxCell id="6dgYTNMcN5cRUHunFICJ-16" value="&lt;div&gt;&lt;font color=&quot;#000000&quot;&gt;calculated&lt;/font&gt;&lt;/div&gt;&lt;font color=&quot;#000000&quot;&gt;total price&lt;/font&gt;" style="whiteSpace=wrap;html=1;aspect=fixed;fillColor=#66FFB3;fontColor=#000000;" vertex="1" parent="6dgYTNMcN5cRUHunFICJ-134">
          <mxGeometry x="411" y="220" width="80" height="80" as="geometry" />
        </mxCell>
        <mxCell id="6dgYTNMcN5cRUHunFICJ-17" value="Order Management System" style="whiteSpace=wrap;html=1;aspect=fixed;fillColor=#FF6666;" vertex="1" parent="6dgYTNMcN5cRUHunFICJ-134">
          <mxGeometry x="1001" y="130" width="90" height="90" as="geometry" />
        </mxCell>
        <mxCell id="6dgYTNMcN5cRUHunFICJ-19" value="Order Context" style="text;strokeColor=none;fillColor=none;html=1;fontSize=24;fontStyle=1;verticalAlign=middle;align=center;" vertex="1" parent="6dgYTNMcN5cRUHunFICJ-134">
          <mxGeometry x="61" y="10" width="100" height="40" as="geometry" />
        </mxCell>
        <mxCell id="6dgYTNMcN5cRUHunFICJ-57" value="Paid" style="whiteSpace=wrap;html=1;aspect=fixed;fillColor=#FF8000;" vertex="1" parent="6dgYTNMcN5cRUHunFICJ-134">
          <mxGeometry x="730.5" y="135" width="80" height="80" as="geometry" />
        </mxCell>
        <mxCell id="6dgYTNMcN5cRUHunFICJ-59" value="Payment failed" style="whiteSpace=wrap;html=1;aspect=fixed;fillColor=#FF8000;" vertex="1" parent="6dgYTNMcN5cRUHunFICJ-134">
          <mxGeometry x="730.5" y="305" width="80" height="80" as="geometry" />
        </mxCell>
        <mxCell id="6dgYTNMcN5cRUHunFICJ-60" value="Successful payment policy" style="whiteSpace=wrap;html=1;aspect=fixed;fillColor=#B266FF;" vertex="1" parent="6dgYTNMcN5cRUHunFICJ-134">
          <mxGeometry x="821" y="135" width="80" height="80" as="geometry" />
        </mxCell>
        <mxCell id="6dgYTNMcN5cRUHunFICJ-61" value="Failed&lt;div&gt;payment policy&lt;/div&gt;" style="whiteSpace=wrap;html=1;aspect=fixed;fillColor=#B266FF;" vertex="1" parent="6dgYTNMcN5cRUHunFICJ-134">
          <mxGeometry x="819.5" y="305" width="80" height="80" as="geometry" />
        </mxCell>
        <mxCell id="6dgYTNMcN5cRUHunFICJ-62" value="Payment System" style="whiteSpace=wrap;html=1;aspect=fixed;fillColor=#FF6666;" vertex="1" parent="6dgYTNMcN5cRUHunFICJ-134">
          <mxGeometry x="616" y="215" width="90" height="90" as="geometry" />
        </mxCell>
        <mxCell id="6dgYTNMcN5cRUHunFICJ-63" value="&lt;font color=&quot;#000000&quot;&gt;Place order&lt;/font&gt;" style="whiteSpace=wrap;html=1;aspect=fixed;fillColor=#66B2FF;fontColor=#000000;" vertex="1" parent="6dgYTNMcN5cRUHunFICJ-134">
          <mxGeometry x="911" y="135" width="80" height="80" as="geometry" />
        </mxCell>
        <mxCell id="6dgYTNMcN5cRUHunFICJ-64" value="&lt;font color=&quot;#000000&quot;&gt;Cancel payment&lt;/font&gt;" style="whiteSpace=wrap;html=1;aspect=fixed;fillColor=#66B2FF;fontColor=#000000;" vertex="1" parent="6dgYTNMcN5cRUHunFICJ-134">
          <mxGeometry x="641" y="420" width="80" height="80" as="geometry" />
        </mxCell>
        <mxCell id="6dgYTNMcN5cRUHunFICJ-65" value="Payment canceled" style="whiteSpace=wrap;html=1;aspect=fixed;fillColor=#FF8000;" vertex="1" parent="6dgYTNMcN5cRUHunFICJ-134">
          <mxGeometry x="730.5" y="420" width="80" height="80" as="geometry" />
        </mxCell>
        <mxCell id="6dgYTNMcN5cRUHunFICJ-68" value="&lt;font color=&quot;#000000&quot;&gt;Show products to order&lt;/font&gt;" style="whiteSpace=wrap;html=1;aspect=fixed;fillColor=#66B2FF;fontColor=#000000;" vertex="1" parent="6dgYTNMcN5cRUHunFICJ-134">
          <mxGeometry x="111" y="220" width="80" height="80" as="geometry" />
        </mxCell>
        <mxCell id="6dgYTNMcN5cRUHunFICJ-69" value="Products to order showed" style="whiteSpace=wrap;html=1;aspect=fixed;fillColor=#FF8000;" vertex="1" parent="6dgYTNMcN5cRUHunFICJ-134">
          <mxGeometry x="211" y="220" width="80" height="80" as="geometry" />
        </mxCell>
        <mxCell id="6dgYTNMcN5cRUHunFICJ-71" style="edgeStyle=orthogonalEdgeStyle;rounded=0;orthogonalLoop=1;jettySize=auto;html=1;exitX=0.5;exitY=1;exitDx=0;exitDy=0;curved=1;" edge="1" parent="6dgYTNMcN5cRUHunFICJ-134" source="6dgYTNMcN5cRUHunFICJ-70" target="6dgYTNMcN5cRUHunFICJ-68">
          <mxGeometry relative="1" as="geometry" />
        </mxCell>
        <mxCell id="6dgYTNMcN5cRUHunFICJ-70" value="Caceled payment policy" style="whiteSpace=wrap;html=1;aspect=fixed;fillColor=#B266FF;" vertex="1" parent="6dgYTNMcN5cRUHunFICJ-134">
          <mxGeometry x="819.5" y="420" width="80" height="80" as="geometry" />
        </mxCell>
        <mxCell id="6dgYTNMcN5cRUHunFICJ-133" value="" style="rounded=0;whiteSpace=wrap;html=1;fillColor=none;" vertex="1" parent="6dgYTNMcN5cRUHunFICJ-134">
          <mxGeometry width="1231" height="590" as="geometry" />
        </mxCell>
        <mxCell id="6dgYTNMcN5cRUHunFICJ-136" value="" style="group" vertex="1" connectable="0" parent="1">
          <mxGeometry x="-1500" y="-180" width="1439" height="942.5" as="geometry" />
        </mxCell>
        <mxCell id="6dgYTNMcN5cRUHunFICJ-36" value="&lt;font style=&quot;color: rgb(0, 0, 0);&quot;&gt;User&lt;/font&gt;" style="whiteSpace=wrap;html=1;aspect=fixed;fillColor=#FFFF99;fontColor=#000000;" vertex="1" parent="6dgYTNMcN5cRUHunFICJ-136">
          <mxGeometry x="478" y="160" width="80" height="80" as="geometry" />
        </mxCell>
        <mxCell id="NV7RWuxPwkH0owP8KRcs-55" value="&lt;font style=&quot;color: rgb(0, 0, 0);&quot;&gt;Potential User&lt;/font&gt;" style="whiteSpace=wrap;html=1;aspect=fixed;fillColor=#FFFF99;fontColor=#000000;" parent="6dgYTNMcN5cRUHunFICJ-136" vertex="1">
          <mxGeometry x="50" y="160" width="80" height="80" as="geometry" />
        </mxCell>
        <mxCell id="NV7RWuxPwkH0owP8KRcs-45" value="" style="rounded=0;whiteSpace=wrap;html=1;fillColor=#FFFF66;glass=0;" parent="6dgYTNMcN5cRUHunFICJ-136" vertex="1">
          <mxGeometry x="847" y="30" width="50" height="220" as="geometry" />
        </mxCell>
        <mxCell id="NV7RWuxPwkH0owP8KRcs-5" value="Account Created" style="whiteSpace=wrap;html=1;aspect=fixed;fillColor=#FF8000;" parent="6dgYTNMcN5cRUHunFICJ-136" vertex="1">
          <mxGeometry x="370" y="160" width="80" height="80" as="geometry" />
        </mxCell>
        <mxCell id="NV7RWuxPwkH0owP8KRcs-6" value="Logged in" style="whiteSpace=wrap;html=1;aspect=fixed;fillColor=#FF8000;" parent="6dgYTNMcN5cRUHunFICJ-136" vertex="1">
          <mxGeometry x="832" y="100" width="80" height="80" as="geometry" />
        </mxCell>
        <mxCell id="NV7RWuxPwkH0owP8KRcs-19" value="Terms aggreed" style="whiteSpace=wrap;html=1;aspect=fixed;fillColor=#FF8000;" parent="6dgYTNMcN5cRUHunFICJ-136" vertex="1">
          <mxGeometry x="210" y="160" width="80" height="80" as="geometry" />
        </mxCell>
        <mxCell id="6dgYTNMcN5cRUHunFICJ-44" style="edgeStyle=orthogonalEdgeStyle;rounded=0;orthogonalLoop=1;jettySize=auto;html=1;exitX=0.5;exitY=1;exitDx=0;exitDy=0;curved=1;" edge="1" parent="6dgYTNMcN5cRUHunFICJ-136" source="NV7RWuxPwkH0owP8KRcs-21" target="6dgYTNMcN5cRUHunFICJ-2">
          <mxGeometry relative="1" as="geometry">
            <Array as="points">
              <mxPoint x="1325" y="490" />
              <mxPoint x="598" y="490" />
            </Array>
          </mxGeometry>
        </mxCell>
        <mxCell id="NV7RWuxPwkH0owP8KRcs-21" value="User password changed" style="whiteSpace=wrap;html=1;aspect=fixed;fillColor=#FF8000;" parent="6dgYTNMcN5cRUHunFICJ-136" vertex="1">
          <mxGeometry x="1285" y="302.5" width="80" height="80" as="geometry" />
        </mxCell>
        <mxCell id="NV7RWuxPwkH0owP8KRcs-23" value="User ID found" style="whiteSpace=wrap;html=1;aspect=fixed;fillColor=#FF8000;" parent="6dgYTNMcN5cRUHunFICJ-136" vertex="1">
          <mxGeometry x="885" y="302.5" width="80" height="80" as="geometry" />
        </mxCell>
        <mxCell id="NV7RWuxPwkH0owP8KRcs-24" value="User password found" style="whiteSpace=wrap;html=1;aspect=fixed;fillColor=#FF8000;" parent="6dgYTNMcN5cRUHunFICJ-136" vertex="1">
          <mxGeometry x="1081" y="302.5" width="80" height="80" as="geometry" />
        </mxCell>
        <mxCell id="NV7RWuxPwkH0owP8KRcs-34" value="Logged out" style="whiteSpace=wrap;html=1;aspect=fixed;fillColor=#FF8000;" parent="6dgYTNMcN5cRUHunFICJ-136" vertex="1">
          <mxGeometry x="1050" y="100" width="80" height="80" as="geometry" />
        </mxCell>
        <mxCell id="NV7RWuxPwkH0owP8KRcs-65" value="User Context" style="text;strokeColor=none;fillColor=none;html=1;fontSize=24;fontStyle=1;verticalAlign=middle;align=center;" parent="6dgYTNMcN5cRUHunFICJ-136" vertex="1">
          <mxGeometry x="70" y="45" width="100" height="40" as="geometry" />
        </mxCell>
        <mxCell id="NV7RWuxPwkH0owP8KRcs-75" value="&lt;font color=&quot;#000000&quot;&gt;Terms Data&lt;/font&gt;" style="whiteSpace=wrap;html=1;aspect=fixed;fillColor=#66FFB3;fontColor=#000000;" parent="6dgYTNMcN5cRUHunFICJ-136" vertex="1">
          <mxGeometry x="130" y="160" width="80" height="80" as="geometry" />
        </mxCell>
        <mxCell id="6dgYTNMcN5cRUHunFICJ-1" value="&lt;font color=&quot;#000000&quot;&gt;Create Account&lt;/font&gt;" style="whiteSpace=wrap;html=1;aspect=fixed;fillColor=#66B2FF;fontColor=#000000;" vertex="1" parent="6dgYTNMcN5cRUHunFICJ-136">
          <mxGeometry x="290" y="160" width="80" height="80" as="geometry" />
        </mxCell>
        <mxCell id="6dgYTNMcN5cRUHunFICJ-2" value="&lt;font color=&quot;#000000&quot;&gt;Log in&lt;/font&gt;" style="whiteSpace=wrap;html=1;aspect=fixed;fillColor=#66B2FF;fontColor=#000000;" vertex="1" parent="6dgYTNMcN5cRUHunFICJ-136">
          <mxGeometry x="558" y="160" width="80" height="80" as="geometry" />
        </mxCell>
        <mxCell id="6dgYTNMcN5cRUHunFICJ-26" value="Successful&amp;nbsp;&lt;div&gt;log in&lt;/div&gt;" style="whiteSpace=wrap;html=1;aspect=fixed;fillColor=#B266FF;" vertex="1" parent="6dgYTNMcN5cRUHunFICJ-136">
          <mxGeometry x="718" y="100" width="80" height="80" as="geometry" />
        </mxCell>
        <mxCell id="6dgYTNMcN5cRUHunFICJ-27" value="Fails to log in" style="whiteSpace=wrap;html=1;aspect=fixed;fillColor=#B266FF;" vertex="1" parent="6dgYTNMcN5cRUHunFICJ-136">
          <mxGeometry x="691" y="300" width="80" height="80" as="geometry" />
        </mxCell>
        <mxCell id="6dgYTNMcN5cRUHunFICJ-28" value="&lt;font color=&quot;#000000&quot;&gt;Find user ID&lt;/font&gt;" style="whiteSpace=wrap;html=1;aspect=fixed;fillColor=#66B2FF;fontColor=#000000;" vertex="1" parent="6dgYTNMcN5cRUHunFICJ-136">
          <mxGeometry x="791" y="302.5" width="80" height="80" as="geometry" />
        </mxCell>
        <mxCell id="6dgYTNMcN5cRUHunFICJ-29" value="&lt;font color=&quot;#000000&quot;&gt;Find user password&lt;/font&gt;" style="whiteSpace=wrap;html=1;aspect=fixed;fillColor=#66B2FF;fontColor=#000000;" vertex="1" parent="6dgYTNMcN5cRUHunFICJ-136">
          <mxGeometry x="981" y="302.5" width="80" height="80" as="geometry" />
        </mxCell>
        <mxCell id="6dgYTNMcN5cRUHunFICJ-35" value="&lt;font color=&quot;#000000&quot;&gt;Log out&lt;/font&gt;" style="whiteSpace=wrap;html=1;aspect=fixed;fillColor=#66B2FF;fontColor=#000000;" vertex="1" parent="6dgYTNMcN5cRUHunFICJ-136">
          <mxGeometry x="943" y="100" width="80" height="80" as="geometry" />
        </mxCell>
        <mxCell id="6dgYTNMcN5cRUHunFICJ-41" value="&lt;font color=&quot;#000000&quot;&gt;Change&lt;/font&gt;" style="whiteSpace=wrap;html=1;aspect=fixed;fillColor=#66B2FF;fontColor=#000000;" vertex="1" parent="6dgYTNMcN5cRUHunFICJ-136">
          <mxGeometry x="1181" y="302.5" width="80" height="80" as="geometry" />
        </mxCell>
        <mxCell id="6dgYTNMcN5cRUHunFICJ-127" value="&lt;font style=&quot;color: rgb(0, 0, 0);&quot;&gt;User&lt;/font&gt;" style="whiteSpace=wrap;html=1;aspect=fixed;fillColor=#FFFF99;fontColor=#000000;" vertex="1" parent="6dgYTNMcN5cRUHunFICJ-136">
          <mxGeometry x="478" y="745" width="80" height="80" as="geometry" />
        </mxCell>
        <mxCell id="6dgYTNMcN5cRUHunFICJ-128" value="&lt;font color=&quot;#000000&quot;&gt;Change user information&lt;/font&gt;" style="whiteSpace=wrap;html=1;aspect=fixed;fillColor=#66B2FF;fontColor=#000000;" vertex="1" parent="6dgYTNMcN5cRUHunFICJ-136">
          <mxGeometry x="583" y="745" width="80" height="80" as="geometry" />
        </mxCell>
        <mxCell id="6dgYTNMcN5cRUHunFICJ-129" value="User information changed" style="whiteSpace=wrap;html=1;aspect=fixed;fillColor=#FF8000;" vertex="1" parent="6dgYTNMcN5cRUHunFICJ-136">
          <mxGeometry x="685" y="745" width="80" height="80" as="geometry" />
        </mxCell>
        <mxCell id="6dgYTNMcN5cRUHunFICJ-131" value="" style="rounded=0;whiteSpace=wrap;html=1;fillColor=none;" vertex="1" parent="6dgYTNMcN5cRUHunFICJ-136">
          <mxGeometry width="1439" height="942.5" as="geometry" />
        </mxCell>
        <mxCell id="6dgYTNMcN5cRUHunFICJ-138" value="" style="group" vertex="1" connectable="0" parent="1">
          <mxGeometry x="8" y="-180" width="810" height="350" as="geometry" />
        </mxCell>
        <mxCell id="6dgYTNMcN5cRUHunFICJ-5" value="&lt;font color=&quot;#000000&quot;&gt;Product detail&lt;/font&gt;" style="whiteSpace=wrap;html=1;aspect=fixed;fillColor=#66FFB3;fontColor=#000000;" vertex="1" parent="6dgYTNMcN5cRUHunFICJ-138">
          <mxGeometry x="606" y="130" width="80" height="80" as="geometry" />
        </mxCell>
        <mxCell id="NV7RWuxPwkH0owP8KRcs-61" value="&lt;font style=&quot;color: rgb(0, 0, 0);&quot;&gt;Customer&lt;/font&gt;" style="whiteSpace=wrap;html=1;aspect=fixed;fillColor=#FFFF99;fontColor=#000000;" parent="6dgYTNMcN5cRUHunFICJ-138" vertex="1">
          <mxGeometry x="30" y="130" width="80" height="80" as="geometry" />
        </mxCell>
        <mxCell id="NV7RWuxPwkH0owP8KRcs-50" value="" style="rounded=0;whiteSpace=wrap;html=1;fillColor=#FFFF66;glass=0;" parent="6dgYTNMcN5cRUHunFICJ-138" vertex="1">
          <mxGeometry x="235" y="70" width="50" height="220" as="geometry" />
        </mxCell>
        <mxCell id="NV7RWuxPwkH0owP8KRcs-51" value="" style="rounded=0;whiteSpace=wrap;html=1;fillColor=#FFFF66;glass=0;" parent="6dgYTNMcN5cRUHunFICJ-138" vertex="1">
          <mxGeometry x="523" y="70" width="50" height="220" as="geometry" />
        </mxCell>
        <mxCell id="NV7RWuxPwkH0owP8KRcs-7" value="Products listed" style="whiteSpace=wrap;html=1;aspect=fixed;fillColor=#FF8000;" parent="6dgYTNMcN5cRUHunFICJ-138" vertex="1">
          <mxGeometry x="220" y="130" width="80" height="80" as="geometry" />
        </mxCell>
        <mxCell id="NV7RWuxPwkH0owP8KRcs-8" value="Product&lt;div&gt;Selected&lt;/div&gt;" style="whiteSpace=wrap;html=1;aspect=fixed;fillColor=#FF8000;" parent="6dgYTNMcN5cRUHunFICJ-138" vertex="1">
          <mxGeometry x="506" y="130" width="80" height="80" as="geometry" />
        </mxCell>
        <mxCell id="NV7RWuxPwkH0owP8KRcs-68" value="Product Context" style="text;strokeColor=none;fillColor=none;html=1;fontSize=24;fontStyle=1;verticalAlign=middle;align=center;" parent="6dgYTNMcN5cRUHunFICJ-138" vertex="1">
          <mxGeometry x="56" y="10" width="100" height="40" as="geometry" />
        </mxCell>
        <mxCell id="6dgYTNMcN5cRUHunFICJ-4" value="&lt;div&gt;&lt;span style=&quot;background-color: transparent; color: light-dark(rgb(0, 0, 0), rgb(0, 0, 0));&quot;&gt;List products&amp;nbsp;&lt;/span&gt;&lt;br&gt;&lt;/div&gt;" style="whiteSpace=wrap;html=1;aspect=fixed;fillColor=#66B2FF;fontColor=#000000;" vertex="1" parent="6dgYTNMcN5cRUHunFICJ-138">
          <mxGeometry x="124" y="130" width="80" height="80" as="geometry" />
        </mxCell>
        <mxCell id="6dgYTNMcN5cRUHunFICJ-6" value="&lt;font color=&quot;#000000&quot;&gt;Select product&lt;/font&gt;" style="whiteSpace=wrap;html=1;aspect=fixed;fillColor=#66B2FF;fontColor=#000000;" vertex="1" parent="6dgYTNMcN5cRUHunFICJ-138">
          <mxGeometry x="413" y="130" width="80" height="80" as="geometry" />
        </mxCell>
        <mxCell id="6dgYTNMcN5cRUHunFICJ-30" value="&lt;font color=&quot;#000000&quot;&gt;Product list&lt;/font&gt;" style="whiteSpace=wrap;html=1;aspect=fixed;fillColor=#66FFB3;fontColor=#000000;" vertex="1" parent="6dgYTNMcN5cRUHunFICJ-138">
          <mxGeometry x="316" y="130" width="80" height="80" as="geometry" />
        </mxCell>
        <mxCell id="6dgYTNMcN5cRUHunFICJ-46" value="&lt;font color=&quot;#000000&quot;&gt;Create order&lt;/font&gt;" style="whiteSpace=wrap;html=1;aspect=fixed;fillColor=#66B2FF;fontColor=#000000;" vertex="1" parent="6dgYTNMcN5cRUHunFICJ-138">
          <mxGeometry x="710" y="70" width="80" height="80" as="geometry" />
        </mxCell>
        <mxCell id="6dgYTNMcN5cRUHunFICJ-47" value="&lt;font color=&quot;#000000&quot;&gt;Add product to wish-list&lt;/font&gt;" style="whiteSpace=wrap;html=1;aspect=fixed;fillColor=#66B2FF;fontColor=#000000;" vertex="1" parent="6dgYTNMcN5cRUHunFICJ-138">
          <mxGeometry x="710" y="190" width="80" height="80" as="geometry" />
        </mxCell>
        <mxCell id="6dgYTNMcN5cRUHunFICJ-137" value="" style="rounded=0;whiteSpace=wrap;html=1;fillColor=none;" vertex="1" parent="6dgYTNMcN5cRUHunFICJ-138">
          <mxGeometry width="810" height="350" as="geometry" />
        </mxCell>
        <mxCell id="6dgYTNMcN5cRUHunFICJ-139" value="" style="group" vertex="1" connectable="0" parent="1">
          <mxGeometry x="-1500" y="1310" width="537" height="590" as="geometry" />
        </mxCell>
        <mxCell id="NV7RWuxPwkH0owP8KRcs-63" value="&lt;font style=&quot;color: rgb(0, 0, 0);&quot;&gt;Admin&lt;/font&gt;" style="whiteSpace=wrap;html=1;aspect=fixed;fillColor=#FFFF99;fontColor=#000000;" parent="6dgYTNMcN5cRUHunFICJ-139" vertex="1">
          <mxGeometry x="27" y="50" width="80" height="80" as="geometry" />
        </mxCell>
        <mxCell id="NV7RWuxPwkH0owP8KRcs-26" value="Enrolled products listed" style="whiteSpace=wrap;html=1;aspect=fixed;fillColor=#FF8000;" parent="6dgYTNMcN5cRUHunFICJ-139" vertex="1">
          <mxGeometry x="227" y="50" width="80" height="80" as="geometry" />
        </mxCell>
        <mxCell id="NV7RWuxPwkH0owP8KRcs-27" value="Current orders listed" style="whiteSpace=wrap;html=1;aspect=fixed;fillColor=#FF8000;" parent="6dgYTNMcN5cRUHunFICJ-139" vertex="1">
          <mxGeometry x="225" y="150" width="80" height="80" as="geometry" />
        </mxCell>
        <mxCell id="NV7RWuxPwkH0owP8KRcs-28" value="enrolled users listed" style="whiteSpace=wrap;html=1;aspect=fixed;fillColor=#FF8000;" parent="6dgYTNMcN5cRUHunFICJ-139" vertex="1">
          <mxGeometry x="225" y="250" width="80" height="80" as="geometry" />
        </mxCell>
        <mxCell id="NV7RWuxPwkH0owP8KRcs-29" value="New product enrolled" style="whiteSpace=wrap;html=1;aspect=fixed;fillColor=#FF8000;" parent="6dgYTNMcN5cRUHunFICJ-139" vertex="1">
          <mxGeometry x="225" y="350" width="80" height="80" as="geometry" />
        </mxCell>
        <mxCell id="NV7RWuxPwkH0owP8KRcs-30" value="Enrolled product deleted" style="whiteSpace=wrap;html=1;aspect=fixed;fillColor=#FF8000;" parent="6dgYTNMcN5cRUHunFICJ-139" vertex="1">
          <mxGeometry x="225" y="450" width="80" height="80" as="geometry" />
        </mxCell>
        <mxCell id="NV7RWuxPwkH0owP8KRcs-32" value="Detailed list of orders showed" style="whiteSpace=wrap;html=1;aspect=fixed;fillColor=#FF8000;" parent="6dgYTNMcN5cRUHunFICJ-139" vertex="1">
          <mxGeometry x="423.5" y="150" width="80" height="80" as="geometry" />
        </mxCell>
        <mxCell id="NV7RWuxPwkH0owP8KRcs-33" value="Detailed users list showed" style="whiteSpace=wrap;html=1;aspect=fixed;fillColor=#FF8000;" parent="6dgYTNMcN5cRUHunFICJ-139" vertex="1">
          <mxGeometry x="423.5" y="250" width="80" height="80" as="geometry" />
        </mxCell>
        <mxCell id="NV7RWuxPwkH0owP8KRcs-71" value="Admin Context" style="text;strokeColor=none;fillColor=none;html=1;fontSize=24;fontStyle=1;verticalAlign=middle;align=center;" parent="6dgYTNMcN5cRUHunFICJ-139" vertex="1">
          <mxGeometry x="45" width="100" height="40" as="geometry" />
        </mxCell>
        <mxCell id="6dgYTNMcN5cRUHunFICJ-91" value="&lt;font color=&quot;#000000&quot;&gt;List enrolled products&lt;/font&gt;" style="whiteSpace=wrap;html=1;aspect=fixed;fillColor=#66B2FF;fontColor=#000000;" vertex="1" parent="6dgYTNMcN5cRUHunFICJ-139">
          <mxGeometry x="127" y="50" width="80" height="80" as="geometry" />
        </mxCell>
        <mxCell id="6dgYTNMcN5cRUHunFICJ-92" value="&lt;font color=&quot;#000000&quot;&gt;List current orders&lt;/font&gt;" style="whiteSpace=wrap;html=1;aspect=fixed;fillColor=#66B2FF;fontColor=#000000;" vertex="1" parent="6dgYTNMcN5cRUHunFICJ-139">
          <mxGeometry x="127" y="150" width="80" height="80" as="geometry" />
        </mxCell>
        <mxCell id="6dgYTNMcN5cRUHunFICJ-93" value="&lt;font color=&quot;#000000&quot;&gt;List enrolled users&lt;/font&gt;" style="whiteSpace=wrap;html=1;aspect=fixed;fillColor=#66B2FF;fontColor=#000000;" vertex="1" parent="6dgYTNMcN5cRUHunFICJ-139">
          <mxGeometry x="127" y="250" width="80" height="80" as="geometry" />
        </mxCell>
        <mxCell id="6dgYTNMcN5cRUHunFICJ-94" value="&lt;font color=&quot;#000000&quot;&gt;Enroll new product&lt;/font&gt;" style="whiteSpace=wrap;html=1;aspect=fixed;fillColor=#66B2FF;fontColor=#000000;" vertex="1" parent="6dgYTNMcN5cRUHunFICJ-139">
          <mxGeometry x="127" y="350" width="80" height="80" as="geometry" />
        </mxCell>
        <mxCell id="6dgYTNMcN5cRUHunFICJ-95" value="&lt;font color=&quot;#000000&quot;&gt;Delete enrolled product&lt;/font&gt;" style="whiteSpace=wrap;html=1;aspect=fixed;fillColor=#66B2FF;fontColor=#000000;" vertex="1" parent="6dgYTNMcN5cRUHunFICJ-139">
          <mxGeometry x="127" y="450" width="80" height="80" as="geometry" />
        </mxCell>
        <mxCell id="6dgYTNMcN5cRUHunFICJ-96" value="&lt;font color=&quot;#000000&quot;&gt;Show detailed list&lt;/font&gt;" style="whiteSpace=wrap;html=1;aspect=fixed;fillColor=#66B2FF;fontColor=#000000;" vertex="1" parent="6dgYTNMcN5cRUHunFICJ-139">
          <mxGeometry x="325" y="150" width="80" height="80" as="geometry" />
        </mxCell>
        <mxCell id="6dgYTNMcN5cRUHunFICJ-97" value="&lt;font color=&quot;#000000&quot;&gt;Show detailed users list&lt;/font&gt;" style="whiteSpace=wrap;html=1;aspect=fixed;fillColor=#66B2FF;fontColor=#000000;" vertex="1" parent="6dgYTNMcN5cRUHunFICJ-139">
          <mxGeometry x="325" y="250" width="80" height="80" as="geometry" />
        </mxCell>
        <mxCell id="6dgYTNMcN5cRUHunFICJ-124" value="" style="rounded=0;whiteSpace=wrap;html=1;fillColor=none;" vertex="1" parent="6dgYTNMcN5cRUHunFICJ-139">
          <mxGeometry width="537" height="590" as="geometry" />
        </mxCell>
        <mxCell id="6dgYTNMcN5cRUHunFICJ-140" value="" style="group" vertex="1" connectable="0" parent="1">
          <mxGeometry y="800" width="1323.5" height="430" as="geometry" />
        </mxCell>
        <mxCell id="NV7RWuxPwkH0owP8KRcs-58" value="&lt;font style=&quot;color: rgb(0, 0, 0);&quot;&gt;Writer&lt;/font&gt;" style="whiteSpace=wrap;html=1;aspect=fixed;fillColor=#FFFF99;fontColor=#000000;" parent="6dgYTNMcN5cRUHunFICJ-140" vertex="1">
          <mxGeometry x="30" y="170" width="80" height="80" as="geometry" />
        </mxCell>
        <mxCell id="NV7RWuxPwkH0owP8KRcs-13" value="Articles listed" style="whiteSpace=wrap;html=1;aspect=fixed;fillColor=#FF8000;" parent="6dgYTNMcN5cRUHunFICJ-140" vertex="1">
          <mxGeometry x="231" y="170" width="80" height="80" as="geometry" />
        </mxCell>
        <mxCell id="NV7RWuxPwkH0owP8KRcs-14" value="Article created" style="whiteSpace=wrap;html=1;aspect=fixed;fillColor=#FF8000;" parent="6dgYTNMcN5cRUHunFICJ-140" vertex="1">
          <mxGeometry x="227" y="280" width="80" height="80" as="geometry" />
        </mxCell>
        <mxCell id="NV7RWuxPwkH0owP8KRcs-15" value="Article modified" style="whiteSpace=wrap;html=1;aspect=fixed;fillColor=#FF8000;" parent="6dgYTNMcN5cRUHunFICJ-140" vertex="1">
          <mxGeometry x="800" y="170" width="80" height="80" as="geometry" />
        </mxCell>
        <mxCell id="NV7RWuxPwkH0owP8KRcs-17" value="Article selected" style="whiteSpace=wrap;html=1;aspect=fixed;fillColor=#FF8000;" parent="6dgYTNMcN5cRUHunFICJ-140" vertex="1">
          <mxGeometry x="515" y="170" width="80" height="80" as="geometry" />
        </mxCell>
        <mxCell id="NV7RWuxPwkH0owP8KRcs-18" value="Article deleted" style="whiteSpace=wrap;html=1;aspect=fixed;fillColor=#FF8000;" parent="6dgYTNMcN5cRUHunFICJ-140" vertex="1">
          <mxGeometry x="800" y="270" width="80" height="80" as="geometry" />
        </mxCell>
        <mxCell id="NV7RWuxPwkH0owP8KRcs-40" value="Comments listed" style="whiteSpace=wrap;html=1;aspect=fixed;fillColor=#FF8000;" parent="6dgYTNMcN5cRUHunFICJ-140" vertex="1">
          <mxGeometry x="800" y="80" width="80" height="80" as="geometry" />
        </mxCell>
        <mxCell id="NV7RWuxPwkH0owP8KRcs-41" value="New comment created" style="whiteSpace=wrap;html=1;aspect=fixed;fillColor=#FF8000;" parent="6dgYTNMcN5cRUHunFICJ-140" vertex="1">
          <mxGeometry x="999" y="80" width="80" height="80" as="geometry" />
        </mxCell>
        <mxCell id="NV7RWuxPwkH0owP8KRcs-44" value="Comment deleted" style="whiteSpace=wrap;html=1;aspect=fixed;fillColor=#FF8000;" parent="6dgYTNMcN5cRUHunFICJ-140" vertex="1">
          <mxGeometry x="1199" y="80" width="80" height="80" as="geometry" />
        </mxCell>
        <mxCell id="NV7RWuxPwkH0owP8KRcs-67" value="Articles Context" style="text;strokeColor=none;fillColor=none;html=1;fontSize=24;fontStyle=1;verticalAlign=middle;align=center;" parent="6dgYTNMcN5cRUHunFICJ-140" vertex="1">
          <mxGeometry x="12" y="10" width="184.5" height="40" as="geometry" />
        </mxCell>
        <mxCell id="6dgYTNMcN5cRUHunFICJ-10" value="&lt;font color=&quot;#000000&quot;&gt;Article list&lt;/font&gt;" style="whiteSpace=wrap;html=1;aspect=fixed;fillColor=#66FFB3;fontColor=#000000;" vertex="1" parent="6dgYTNMcN5cRUHunFICJ-140">
          <mxGeometry x="323" y="170" width="80" height="80" as="geometry" />
        </mxCell>
        <mxCell id="6dgYTNMcN5cRUHunFICJ-34" value="&lt;font color=&quot;#000000&quot;&gt;Select article&lt;/font&gt;" style="whiteSpace=wrap;html=1;aspect=fixed;fillColor=#66B2FF;fontColor=#000000;" vertex="1" parent="6dgYTNMcN5cRUHunFICJ-140">
          <mxGeometry x="418" y="170" width="80" height="80" as="geometry" />
        </mxCell>
        <mxCell id="6dgYTNMcN5cRUHunFICJ-72" value="&lt;font color=&quot;#000000&quot;&gt;List articles&lt;/font&gt;" style="whiteSpace=wrap;html=1;aspect=fixed;fillColor=#66B2FF;fontColor=#000000;" vertex="1" parent="6dgYTNMcN5cRUHunFICJ-140">
          <mxGeometry x="131" y="170" width="80" height="80" as="geometry" />
        </mxCell>
        <mxCell id="6dgYTNMcN5cRUHunFICJ-74" value="&lt;font color=&quot;#000000&quot;&gt;Create article&lt;/font&gt;" style="whiteSpace=wrap;html=1;aspect=fixed;fillColor=#66B2FF;fontColor=#000000;" vertex="1" parent="6dgYTNMcN5cRUHunFICJ-140">
          <mxGeometry x="131" y="280" width="80" height="80" as="geometry" />
        </mxCell>
        <mxCell id="6dgYTNMcN5cRUHunFICJ-76" value="&lt;font color=&quot;#000000&quot;&gt;Modify article&lt;/font&gt;" style="whiteSpace=wrap;html=1;aspect=fixed;fillColor=#66B2FF;fontColor=#000000;" vertex="1" parent="6dgYTNMcN5cRUHunFICJ-140">
          <mxGeometry x="700" y="170" width="80" height="80" as="geometry" />
        </mxCell>
        <mxCell id="6dgYTNMcN5cRUHunFICJ-77" value="&lt;font color=&quot;#000000&quot;&gt;Delete article&lt;/font&gt;" style="whiteSpace=wrap;html=1;aspect=fixed;fillColor=#66B2FF;fontColor=#000000;" vertex="1" parent="6dgYTNMcN5cRUHunFICJ-140">
          <mxGeometry x="700" y="270" width="80" height="80" as="geometry" />
        </mxCell>
        <mxCell id="6dgYTNMcN5cRUHunFICJ-80" value="&lt;font color=&quot;#000000&quot;&gt;Article&lt;/font&gt;" style="whiteSpace=wrap;html=1;aspect=fixed;fillColor=#66FFB3;fontColor=#000000;" vertex="1" parent="6dgYTNMcN5cRUHunFICJ-140">
          <mxGeometry x="610" y="170" width="80" height="80" as="geometry" />
        </mxCell>
        <mxCell id="6dgYTNMcN5cRUHunFICJ-82" value="&lt;font color=&quot;#000000&quot;&gt;ListComment&lt;/font&gt;" style="whiteSpace=wrap;html=1;aspect=fixed;fillColor=#66B2FF;fontColor=#000000;" vertex="1" parent="6dgYTNMcN5cRUHunFICJ-140">
          <mxGeometry x="700" y="80" width="80" height="80" as="geometry" />
        </mxCell>
        <mxCell id="6dgYTNMcN5cRUHunFICJ-85" value="&lt;font color=&quot;#000000&quot;&gt;Create comment&lt;/font&gt;" style="whiteSpace=wrap;html=1;aspect=fixed;fillColor=#66B2FF;fontColor=#000000;" vertex="1" parent="6dgYTNMcN5cRUHunFICJ-140">
          <mxGeometry x="899" y="80" width="80" height="80" as="geometry" />
        </mxCell>
        <mxCell id="6dgYTNMcN5cRUHunFICJ-86" value="&lt;font color=&quot;#000000&quot;&gt;Create comment&lt;/font&gt;" style="whiteSpace=wrap;html=1;aspect=fixed;fillColor=#66B2FF;fontColor=#000000;" vertex="1" parent="6dgYTNMcN5cRUHunFICJ-140">
          <mxGeometry x="1099" y="80" width="80" height="80" as="geometry" />
        </mxCell>
        <mxCell id="6dgYTNMcN5cRUHunFICJ-99" value="" style="rounded=0;whiteSpace=wrap;html=1;fillColor=none;" vertex="1" parent="6dgYTNMcN5cRUHunFICJ-140">
          <mxGeometry width="1323.5" height="430" as="geometry" />
        </mxCell>
      </root>
    </mxGraphModel>
  </diagram>
</mxfile>
